PathFileType	4	(X/Y/Z)	./resultDataOpenSim/trcMotMarkerGrf/sub09/qtm-01-05.trc
DataRate	CameraRate	NumFrames	NumMarkers	Units	OrigDataRate	OrigDataStartFrame	OrigNumFrames
250.000000	250.000000	10	24	m	250.000000	117	465
Frame#	Time	L.Toe.Tip			R.Toe.Tip			L.Ankle.Lat			R.Ankle.Lat			L.Ankle.Med			R.Ankle.Med			L.Heel			R.Heel			L.Knee.Lat			R.Knee.Lat			L.Knee.Med			R.Knee.Med			L.Thigh.Upper			R.Thigh.Upper			L.ASIS			R.ASIS			V.Sacral			L.Acromium			R.Acromium			C7			L.Elbow			R.Elbow			L.Wrist.Lat			R.Wrist.Lat
		X1	Y1	Z1	X2	Y2	Z2	X3	Y3	Z3	X4	Y4	Z4	X5	Y5	Z5	X6	Y6	Z6	X7	Y7	Z7	X8	Y8	Z8	X9	Y9	Z9	X10	Y10	Z10	X11	Y11	Z11	X12	Y12	Z12	X13	Y13	Z13	X14	Y14	Z14	X15	Y15	Z15	X16	Y16	Z16	X17	Y17	Z17	X18	Y18	Z18	X19	Y19	Z19	X20	Y20	Z20	X21	Y21	Z21	X22	Y22	Z22	X23	Y23	Z23	X24	Y24	Z24

117	0.464	-0.26198196	0.084818132	0.001486191	-0.58705126	0.040609177	0.086908703	-0.41167926	0.11061728	-0.02869645	-0.73446027	0.057162552	0.12195684	-0.38601694	0.13061377	0.064835168	-0.7228988	0.099399955	0.03355567	-0.47628718	0.068749159	0.024512219	-0.80267393	0.038036483	0.070098166	-0.37685085	0.52784213	-0.071476183	-0.62727898	0.50434165	0.19591736	-0.37353533	0.52641025	0.052930766	-0.6419914	0.4975422	0.068512008	-0.56455456	0.90420772	-0.11145744	-0.6114624	0.91054984	0.25839106	-0.49843008	0.988238	-0.044069136	-0.50506133	0.99154329	0.19421366	-0.66710902	1.0479708	0.065587598	-0.49188239	1.4399896	-0.091775548	-0.51203798	1.4508338	0.23689666	-0.56610137	1.4976544	0.073306728	-0.6603046	1.1117935	-0.14824916	-0.65321012	1.1106964	0.3222113	-0.53230166	0.88015438	-0.18220216	-0.47845439	0.8956359	0.32147639
118	0.468	-0.24119673	0.086840432	0.0032746037	-0.58704058	0.040474509	0.086864268	-0.39163362	0.10822518	-0.027520159	-0.73445581	0.057331589	0.12181566	-0.36677843	0.12937116	0.066024168	-0.7226369	0.099529825	0.033422547	-0.45506349	0.064760075	0.025469468	-0.80263761	0.038247906	0.069645062	-0.36979674	0.52615902	-0.070996677	-0.62578552	0.50425362	0.19629447	-0.36668043	0.5253654	0.053230928	-0.64020252	0.49743788	0.068727604	-0.55774466	0.90304612	-0.11130834	-0.60601711	0.90997486	0.25837422	-0.49163927	0.98721157	-0.043859395	-0.49898428	0.99069626	0.19451399	-0.66057085	1.0468864	0.065274786	-0.48564626	1.4391092	-0.091568238	-0.50600119	1.4500269	0.23710302	-0.55999688	1.4967606	0.07350926	-0.65454318	1.1113687	-0.14842878	-0.64655372	1.1096225	0.32242241	-0.5276104	0.87939532	-0.18262163	-0.47117184	0.89505229	0.32165767
119	0.472	-0.22062609	0.089124952	0.0050615312	-0.58699523	0.040292532	0.086829755	-0.37169163	0.10614566	-0.026391846	-0.73446804	0.057543603	0.12161312	-0.34764748	0.12842242	0.067188377	-0.72234204	0.099660145	0.033232756	-0.4338117	0.061065736	0.026552887	-0.80259023	0.038474824	0.069136663	-0.36282745	0.52430701	-0.070518075	-0.6241909	0.50414822	0.19667816	-0.35982884	0.52414973	0.053692636	-0.63826005	0.49729069	0.068990686	-0.55116253	0.90172545	-0.11119069	-0.60057193	0.90932228	0.25834081	-0.48479667	0.98607302	-0.043659809	-0.49290508	0.98976949	0.19480699	-0.65392009	1.0457855	0.065049896	-0.47942459	1.4381496	-0.091380278	-0.49997606	1.4491283	0.23730213	-0.55388891	1.4957807	0.073688872	-0.64859766	1.1108075	-0.14876169	-0.63989908	1.1084455	0.32261619	-0.52277128	0.87858937	-0.18301822	-0.46390664	0.89436695	0.32185628
120	0.476	-0.20031509	0.091649757	0.0067912871	-0.58692848	0.040135619	0.086881837	-0.35190389	0.10439265	-0.025331879	-0.73454903	0.057774761	0.12125777	-0.32862401	0.127785	0.068307892	-0.72200361	0.099795742	0.032969506	-0.41262182	0.057714223	0.027676224	-0.80251736	0.038711136	0.068553043	-0.35610589	0.52246043	-0.070129418	-0.62253797	0.50399797	0.1970497	-0.35301048	0.52275924	0.054296661	-0.6362321	0.49709686	0.069313669	-0.54474054	0.90025568	-0.11109758	-0.59513131	0.90860882	0.2582978	-0.47792777	0.9848267	-0.043471306	-0.48681852	0.98877093	0.19509012	-0.64718893	1.0446524	0.06492903	-0.47322309	1.4371275	-0.091216322	-0.49395451	1.4481373	0.23749797	-0.54779345	1.4947281	0.073856267	-0.6427217	1.1101488	-0.14904428	-0.6332457	1.1071696	0.32279621	-0.51773805	0.87773686	-0.18336538	-0.45666239	0.89358341	0.32206927
121	0.48	-0.18029684	0.094393294	0.0084109239	-0.58684995	0.04003616	0.087017616	-0.3323237	0.10297422	-0.024376085	-0.73468684	0.057985941	0.1207393	-0.30973755	0.12743376	0.069341328	-0.72159548	0.099957427	0.032657628	-0.39159689	0.054748934	0.028744369	-0.80239749	0.038957505	0.067876106	-0.34960273	0.52064992	-0.069792046	-0.62084532	0.50378197	0.19740625	-0.346352	0.52116263	0.054942263	-0.63413327	0.49686366	0.069678551	-0.53838521	0.89865676	-0.11101796	-0.58969111	0.90785186	0.25825168	-0.4710691	0.98347754	-0.04328975	-0.48070768	0.98770405	0.19536278	-0.64046685	1.0434161	0.064829998	-0.46703621	1.4360565	-0.091076811	-0.48793117	1.4470538	0.23769345	-0.54173852	1.4936251	0.074039268	-0.63702125	1.1094148	-0.14918601	-0.62659095	1.1058006	0.32296382	-0.51253869	0.87678738	-0.18366809	-0.4494294	0.89270886	0.32229972
122	0.484	-0.160595	0.097338496	0.0098885044	-0.58675595	0.039979745	0.087195317	-0.31298692	0.10189275	-0.023535842	-0.73481004	0.058161593	0.1201382	-0.29104542	0.12732355	0.07025724	-0.72109041	0.10017379	0.032343782	-0.37080284	0.052185288	0.029723333	-0.80221373	0.039227594	0.067100696	-0.34318438	0.51879944	-0.069424444	-0.6191051	0.50350122	0.19777102	-0.33993127	0.51933572	0.055548131	-0.63193677	0.49660809	0.070038434	-0.5320128	0.89694834	-0.11093854	-0.58424279	0.90705676	0.25820543	-0.46423666	0.98203175	-0.043109118	-0.47456827	0.9865708	0.19562461	-0.63382506	1.0420243	0.064631126	-0.46084735	1.4349261	-0.090949633	-0.48190361	1.44588	0.23788891	-0.53574229	1.4924852	0.074265775	-0.63140208	1.1086028	-0.14925201	-0.61993124	1.1043427	0.32312132	-0.5072765	0.87568669	-0.18396371	-0.44219728	0.89175029	0.32255153
123	0.488	-0.14123274	0.100472	0.011223665	-0.58663985	0.03993666	0.087380429	-0.29389585	0.1011373	-0.022772337	-0.73487113	0.058327085	0.11952248	-0.27260961	0.12742813	0.07106349	-0.72047872	0.10045529	0.032045585	-0.35027733	0.050013216	0.030621951	-0.80196222	0.039535368	0.066223321	-0.33677657	0.51685382	-0.068990859	-0.61730532	0.50316307	0.19816678	-0.33367996	0.51730055	0.056124954	-0.62957962	0.49633384	0.070367511	-0.52554281	0.89514884	-0.11084359	-0.578782	0.90621787	0.25815927	-0.45742472	0.98049897	-0.042922841	-0.46841477	0.98537938	0.19587385	-0.62728509	1.040484	0.064225278	-0.4546412	1.433708	-0.09082127	-0.47586457	1.4446203	0.23808339	-0.52976974	1.491289	0.07451453	-0.62573466	1.1077067	-0.14933342	-0.61326851	1.1028019	0.32327672	-0.50206581	0.87443483	-0.18429124	-0.43496271	0.89070805	0.32282805
124	0.492	-0.12224669	0.10378401	0.012450967	-0.58649884	0.039887669	0.087556296	-0.27505388	0.10068883	-0.022038676	-0.73487765	0.058518838	0.11889658	-0.25448792	0.12773363	0.071785832	-0.71977519	0.1007818	0.031736708	-0.33006273	0.048212983	0.031442249	-0.80165697	0.03987938	0.065239111	-0.33038046	0.5148138	-0.068486821	-0.61541529	0.50277588	0.19858598	-0.32747431	0.51512529	0.056729873	-0.62698539	0.49603531	0.070668295	-0.518924	0.89327198	-0.11072124	-0.57331046	0.90532753	0.25811007	-0.45062209	0.97889119	-0.042722256	-0.46225576	0.98414023	0.19611032	-0.62082973	1.0388395	0.063587718	-0.44841488	1.4323907	-0.090695348	-0.46981022	1.4432777	0.23827473	-0.52372213	1.4899949	0.074694876	-0.61996722	1.1067236	-0.14946684	-0.60660528	1.1011853	0.32343575	-0.49694641	0.87307098	-0.18467268	-0.42773495	0.88957709	0.32313754
125	0.496	-0.10369606	0.10727145	0.013618201	-0.58633595	0.03982654	0.08771563	-0.2565261	0.10052862	-0.021340288	-0.73485764	0.058750065	0.11824602	-0.236741	0.12820717	0.072431529	-0.71901614	0.10111547	0.031374119	-0.31021333	0.046763141	0.032167517	-0.80132564	0.040243557	0.064159473	-0.32400502	0.51269127	-0.06791522	-0.61336226	0.50236345	0.19899163	-0.32124735	0.51288156	0.057401348	-0.62414231	0.49571754	0.070934157	-0.51216533	0.89132362	-0.11056858	-0.56783317	0.90438343	0.25805466	-0.44381661	0.9772186	-0.042501244	-0.45608273	0.98285342	0.1963411	-0.61440357	1.0371371	0.062863546	-0.44217347	1.4309896	-0.090579308	-0.46374693	1.4418525	0.23845816	-0.51752435	1.4885796	0.074733078	-0.61411144	1.1056517	-0.14964664	-0.59993789	1.0994929	0.32359379	-0.491846	0.87163258	-0.18511442	-0.42053298	0.88835871	0.32348323
126	0.5	-0.08564939	0.110936	0.014742762	-0.58616163	0.039755084	0.087853754	-0.2384343	0.10062623	-0.020719221	-0.73483048	0.059011311	0.11757857	-0.21942743	0.12880551	0.07299629	-0.718244	0.10142258	0.030930272	-0.29078201	0.045638827	0.032778541	-0.80099232	0.040615436	0.063023607	-0.31763619	0.51048804	-0.067289379	-0.61107088	0.50194843	0.19934295	-0.31498882	0.5106037	0.058153458	-0.62114369	0.4953859	0.071151524	-0.50529921	0.88930589	-0.11038847	-0.5623518	0.90338938	0.25799584	-0.43699589	0.97548663	-0.042261704	-0.44989299	0.98151044	0.19657917	-0.60795488	1.0353933	0.062280107	-0.4359215	1.4295246	-0.09046834	-0.45767173	1.440341	0.23862837	-0.51122753	1.4870598	0.074679546	-0.60819487	1.1044924	-0.14985481	-0.59326341	1.0977212	0.32374376	-0.48664913	0.87015706	-0.18559981	-0.41337028	0.88706244	0.32385437
